<?xml version="1.0" encoding="UTF-8" standalone="no"?>
<!-- Created with Inkscape (http://www.inkscape.org/) -->

<svg
   width="8.5261812mm"
   height="8.5469532mm"
   viewBox="0 0 8.5261812 8.5469532"
   version="1.1"
   id="svg1"
   xml:space="preserve"
   inkscape:version="1.3.2 (091e20e, 2023-11-25, custom)"
   sodipodi:docname="logo-colour.svg"
   xmlns:inkscape="http://www.inkscape.org/namespaces/inkscape"
   xmlns:sodipodi="http://sodipodi.sourceforge.net/DTD/sodipodi-0.dtd"
   xmlns:xlink="http://www.w3.org/1999/xlink"
   xmlns="http://www.w3.org/2000/svg"
   xmlns:svg="http://www.w3.org/2000/svg"><sodipodi:namedview
     id="namedview1"
     pagecolor="#505050"
     bordercolor="#eeeeee"
     borderopacity="1"
     inkscape:showpageshadow="0"
     inkscape:pageopacity="0"
     inkscape:pagecheckerboard="0"
     inkscape:deskcolor="#505050"
     inkscape:document-units="mm"
     inkscape:zoom="5.6568543"
     inkscape:cx="-44.282562"
     inkscape:cy="6.4523493"
     inkscape:window-width="1920"
     inkscape:window-height="1009"
     inkscape:window-x="1192"
     inkscape:window-y="461"
     inkscape:window-maximized="1"
     inkscape:current-layer="layer2" /><defs
     id="defs1"><linearGradient
       id="linearGradient69"
       inkscape:collect="always"><stop
         style="stop-color:#082050;stop-opacity:0.96078401;"
         offset="0.34"
         id="stop69" /><stop
         style="stop-color:#9966b8;stop-opacity:1;"
         offset="0.34"
         id="stop70" /></linearGradient><linearGradient
       inkscape:collect="always"
       xlink:href="#linearGradient69"
       id="linearGradient70"
       x1="100.71685"
       y1="146.04922"
       x2="107.59137"
       y2="152.74649"
       gradientUnits="userSpaceOnUse" /></defs><g
     inkscape:groupmode="layer"
     id="layer2"
     inkscape:label="Layer 2"
     transform="translate(-100.78002,-144.1974)"><g
       id="rect1"
       style="fill:url(#linearGradient70);fill-opacity:0.960784" /><g
       id="path3" /><path
       id="path88"
       style="color:#000000;display:inline;fill:#607da7;fill-opacity:1;stroke-linecap:round;stroke-linejoin:round;-inkscape-stroke:none"
       d="m 107.67922,144.30695 a 0.2645835,0.2645835 0 0 0 -0.16382,0.076 l -0.30644,0.30644 a 0.2645835,0.2645835 0 0 0 0,0.3731 0.2645835,0.2645835 0 0 0 0.37517,0 l 0.30438,-0.30489 a 0.2645835,0.2645835 0 0 0 0,-0.37465 0.2645835,0.2645835 0 0 0 -0.20929,-0.076 z m -1.03095,1.08366 a 0.2645835,0.2645835 0 0 0 -0.15813,0.076 l -0.79892,0.79685 a 0.2645835,0.2645835 0 0 0 -0.008,0.0103 c -0.24255,0.24268 -0.48504,0.48544 -0.7276,0.72812 h 1.56993 v 4.74235 h -1.71256 l 0.41393,-0.41393 a 0.26458335,0.26458335 0 0 0 0,-0.37311 0.26458335,0.26458335 0 0 0 -0.18759,-0.078 0.26458335,0.26458335 0 0 0 -0.18758,0.078 l -0.78703,0.78704 -0.19534,0.19533 -0.8046,0.80461 h 3.93722 c 0.34189,-0.002 0.55473,-0.33996 0.52245,-0.65785 0.002,-0.81736 5.2e-4,-1.63466 5.2e-4,-2.45204 a 0.2645835,0.2645835 0 0 0 0.0827,-0.0543 l 0.73639,-0.73433 a 0.2645835,0.2645835 0 0 0 0,-0.37517 0.2645835,0.2645835 0 0 0 -0.18758,-0.078 0.2645835,0.2645835 0 0 0 -0.18759,0.078 l -0.54105,0.54261 c -0.26984,0.17466 -0.60313,-0.27026 -0.26097,-0.48473 0.0873,-0.0974 0.1956,-0.18588 0.28319,-0.28319 l 1.77818,-1.7787 a 0.2645835,0.2645835 0 0 0 0,-0.37465 0.2645835,0.2645835 0 0 0 -0.18758,-0.078 0.2645835,0.2645835 0 0 0 -0.18759,0.078 l -1.32756,1.32912 v -0.003 c -0.40032,0.24857 -0.55576,-0.32646 -0.24753,-0.49868 0.0454,-0.0453 0.091,-0.0901 0.13642,-0.13539 a 0.26458335,0.26458335 0 0 0 0.0124,-0.0103 l 0.75603,-0.75603 a 0.26458335,0.26458335 0 0 0 0,-0.37465 0.26458335,0.26458335 0 0 0 -0.18758,-0.078 0.26458335,0.26458335 0 0 0 -0.18552,0.078 l -0.7581,0.75551 a 0.26458335,0.26458335 0 0 0 -0.0279,0.0346 c -0.0652,0.0651 -0.13458,0.12472 -0.21859,0.16536 -0.34113,0.0455 -0.36905,-0.25573 -0.2372,-0.46147 l 0.13488,-0.13539 0.16278,-0.16226 a 0.2645835,0.2645835 0 0 0 0,-0.37311 0.2645835,0.2645835 0 0 0 -0.21704,-0.076 z" /><path
       id="path97"
       style="color:#000000;fill:#fcbc3d;fill-opacity:0.960784;stroke-linecap:round;stroke-linejoin:round;-inkscape-stroke:none"
       d="m 106.37128,144.1974 a 0.26458335,0.26458335 0 0 0 -0.18758,0.078 l -1.72651,1.72651 h -10e-4 c -0.0598,0.0534 -0.11492,0.11273 -0.17054,0.17157 l -0.0455,0.0455 a 0.26458335,0.26458335 0 0 0 -0.006,0.009 c -0.0767,0.0784 -0.15771,0.15159 -0.2558,0.20205 -0.23927,0.0837 -0.38194,-0.22124 -0.31109,-0.38395 l 0.38757,-0.38758 a 0.2645835,0.2645835 0 0 0 0,-0.37517 0.2645835,0.2645835 0 0 0 -0.18758,-0.076 0.2645835,0.2645835 0 0 0 -0.18759,0.076 l -0.71727,0.71882 c -0.55187,-2e-5 -1.10383,3e-5 -1.65571,0 h -5.2e-4 c -0.34038,0.002 -0.55635,0.3393 -0.52245,0.65733 -3e-5,1.82598 -0.003,3.65227 0.001,5.47821 -0.0222,0.31146 0.21659,0.61541 0.54053,0.60669 h 0.99064 c 0.33297,-0.33331 0.66593,-0.66663 0.9989,-0.99994 h -1.53169 v -4.74235 h 2.43655 c 0.12533,-0.13905 0.25691,-0.27292 0.38964,-0.40566 a 0.26458335,0.26458335 0 0 0 0.006,-0.005 l 0.28267,-0.28215 c 0.0505,-0.0498 0.10024,-0.10025 0.15038,-0.15038 l 1.50998,-1.50844 a 0.26458335,0.26458335 0 0 0 0,-0.37517 0.26458335,0.26458335 0 0 0 -0.18707,-0.078 z" /></g></svg>
